<?xml version="1.0" encoding="UTF-8" standalone="no"?>
<!-- Created with Inkscape (http://www.inkscape.org/) -->

<svg
   xmlns:dc="http://purl.org/dc/elements/1.1/"
   xmlns:cc="http://creativecommons.org/ns#"
   xmlns:rdf="http://www.w3.org/1999/02/22-rdf-syntax-ns#"
   xmlns:svg="http://www.w3.org/2000/svg"
   xmlns="http://www.w3.org/2000/svg"
   xmlns:sodipodi="http://sodipodi.sourceforge.net/DTD/sodipodi-0.dtd"
   xmlns:inkscape="http://www.inkscape.org/namespaces/inkscape"
   width="134.9375mm"
   height="134.9375mm"
   viewBox="0 0 134.9375 134.9375"
   version="1.1"
   id="svg958"
   inkscape:version="0.92.4 5da689c313, 2019-01-14"
   sodipodi:docname="logo.svg">
  <defs
     id="defs952" />
  <sodipodi:namedview
     id="base"
     pagecolor="#ffffff"
     bordercolor="#666666"
     borderopacity="1.0"
     inkscape:pageopacity="0.0"
     inkscape:pageshadow="2"
     inkscape:zoom="1.1968098"
     inkscape:cx="257.8803"
     inkscape:cy="135.48718"
     inkscape:document-units="mm"
     inkscape:current-layer="layer1"
     showgrid="false"
     inkscape:pagecheckerboard="true"
     fit-margin-top="0"
     fit-margin-left="0"
     fit-margin-right="0"
     fit-margin-bottom="0"
     inkscape:window-width="3840"
     inkscape:window-height="2116"
     inkscape:window-x="0"
     inkscape:window-y="23"
     inkscape:window-maximized="1" />
  <metadata
     id="metadata955">
    <rdf:RDF>
      <cc:Work
         rdf:about="">
        <dc:format>image/svg+xml</dc:format>
        <dc:type
           rdf:resource="http://purl.org/dc/dcmitype/StillImage" />
        <dc:title />
      </cc:Work>
    </rdf:RDF>
  </metadata>
  <g
     inkscape:label="Layer 1"
     inkscape:groupmode="layer"
     id="layer1"
     transform="translate(-17.104636,-45.708508)">
    <path
       style="opacity:0.3;fill:#ffffff;fill-opacity:1;stroke:none;stroke-width:2.59466743;stroke-linecap:round;stroke-linejoin:round;stroke-miterlimit:4;stroke-dasharray:none;stroke-opacity:1"
       d="M 215.30664 40.828125 C 210.94999 49.173484 205.68675 58.83452 199.66797 69.609375 C 193.64919 80.384226 186.87512 92.273876 179.5 105.07812 C 164.74976 130.68664 147.5928 159.95375 129.25195 191.2793 C 110.91112 222.60486 91.385511 255.98826 71.900391 289.83008 C 62.157838 306.75102 52.42541 323.78647 42.855469 340.73633 C 37.790917 349.70643 32.952681 358.51175 28.001953 367.4043 A 257.08308 253.0758 43.748309 0 0 41.595703 391.12891 A 257.08308 253.0758 43.748309 0 0 76.005859 433.89062 A 257.08308 253.0758 43.748309 0 0 436.86719 436.7207 A 257.08308 253.0758 43.748309 0 0 472.53711 391.12891 A 257.08308 253.0758 43.748309 0 0 486.20703 365.94141 L 366.75391 166.28125 L 330.00977 214.94727 L 219.05859 40.828125 L 217.5957 40.828125 L 216.76758 40.828125 L 215.30664 40.828125 z "
       transform="matrix(0.26458333,0,0,0.26458333,17.104636,45.708508)"
       id="path853" />
    <path
       style="fill:#ffffff;fill-opacity:1;stroke:none;stroke-width:0.68650573;stroke-linecap:round;stroke-linejoin:round;stroke-miterlimit:4;stroke-dasharray:none;stroke-opacity:1"
       d="M 85.034585,45.72551 A 68.019898,66.959639 43.748309 0 0 36.465064,65.096655 68.019898,66.959639 43.748309 0 0 24.513433,142.91779 c 1.30988,-2.35282 2.590159,-4.68272 3.930155,-7.05606 2.532047,-4.48465 5.10703,-8.99198 7.684747,-13.46898 5.155438,-8.95398 10.321586,-17.78675 15.174264,-26.074971 4.852683,-8.288218 9.392023,-16.031786 13.294691,-22.807371 1.951334,-3.387791 3.743595,-6.533537 5.336064,-9.384383 1.592468,-2.850847 2.985322,-5.406841 4.138019,-7.614884 h 0.386242 0.21945 0.386591 l 29.356254,46.068699 9.72162,-12.876004 31.60522,52.826884 A 68.019898,66.959639 43.748309 0 0 131.94293,65.845357 68.019898,66.959639 43.748309 0 0 85.034585,45.72551 Z"
       id="path837"
       inkscape:export-xdpi="1744.92"
       inkscape:export-ydpi="1744.92"
       inkscape:connector-curvature="0" />
    <path
       style="font-style:normal;font-variant:normal;font-weight:normal;font-stretch:normal;font-size:45.35757828px;line-height:1.25;font-family:'League Spartan';-inkscape-font-specification:'League Spartan';letter-spacing:5.43861628px;word-spacing:0px;fill:#ffffff;fill-opacity:1;stroke:none;stroke-width:4.28575611"
       d="M 335.75391 263.98828 C 297.35354 263.98828 283.63867 305.13086 283.63867 305.13086 L 310.55469 318.16016 C 310.55469 318.16016 320.32519 291.24609 335.75391 291.24609 C 354.61122 291.24609 355.81055 308.56021 355.81055 313.70312 C 355.81055 339.76051 282.95312 399.93164 282.95312 399.93164 L 282.95312 407.99023 L 393.18359 407.99023 L 393.18359 379.70312 L 340.72461 379.70312 C 340.72461 379.70312 390.61133 346.78915 390.61133 313.70312 C 390.61133 295.87438 384.26868 263.98828 335.75391 263.98828 z M 128.32031 266.55859 L 128.32031 407.99023 L 160.55078 407.99023 L 160.55078 347.98828 L 212.66406 407.99023 L 257.06445 407.99023 L 191.23633 333.58789 L 248.15039 266.55859 L 209.06445 266.55859 L 160.55078 324.33203 L 160.55078 266.55859 L 128.32031 266.55859 z "
       transform="matrix(0.26458333,0,0,0.26458333,17.104636,45.708508)"
       id="path825" />
  </g>
</svg>
