<?xml version="1.0" encoding="UTF-8" standalone="no"?>
<svg
   xmlns:dc="http://purl.org/dc/elements/1.1/"
   xmlns:cc="http://creativecommons.org/ns#"
   xmlns:rdf="http://www.w3.org/1999/02/22-rdf-syntax-ns#"
   xmlns:svg="http://www.w3.org/2000/svg"
   xmlns="http://www.w3.org/2000/svg"
   xmlns:xlink="http://www.w3.org/1999/xlink"
   xmlns:sodipodi="http://sodipodi.sourceforge.net/DTD/sodipodi-0.dtd"
   xmlns:inkscape="http://www.inkscape.org/namespaces/inkscape"
   viewBox="0 0 966.99998 967.00003"
   version="1.1"
   id="svg925"
   sodipodi:docname="logo-circle.svg"
   width="967"
   height="967"
   inkscape:version="0.92.4 5da689c313, 2019-01-14"
   inkscape:export-filename="/home/paul/k2.png"
   inkscape:export-xdpi="122.28"
   inkscape:export-ydpi="122.28">
  <metadata
     id="metadata929">
    <rdf:RDF>
      <cc:Work
         rdf:about="">
        <dc:format>image/svg+xml</dc:format>
        <dc:type
           rdf:resource="http://purl.org/dc/dcmitype/StillImage" />
        <dc:title>mountains</dc:title>
      </cc:Work>
    </rdf:RDF>
  </metadata>
  <sodipodi:namedview
     pagecolor="#ffffff"
     bordercolor="#666666"
     borderopacity="1"
     objecttolerance="10"
     gridtolerance="10"
     guidetolerance="10"
     inkscape:pageopacity="0"
     inkscape:pageshadow="2"
     inkscape:window-width="3840"
     inkscape:window-height="2116"
     id="namedview927"
     showgrid="false"
     inkscape:pagecheckerboard="true"
     fit-margin-top="0"
     fit-margin-left="0"
     fit-margin-right="0"
     fit-margin-bottom="0"
     inkscape:zoom="1.580902"
     inkscape:cx="574.81358"
     inkscape:cy="529.84443"
     inkscape:window-x="0"
     inkscape:window-y="23"
     inkscape:window-maximized="1"
     inkscape:current-layer="svg925" />
  <defs
     id="defs847">
    <style
       id="style815">.cls-1{fill:#ff3939;}.cls-2{fill:#051928;}.cls-3{fill:#f4aa4a;}.cls-4{opacity:0.3;}.cls-5{fill:#fff;}.cls-6{fill:url(#linear-gradient);}.cls-7{fill:url(#linear-gradient-2);}.cls-8{fill:url(#linear-gradient-3);}.cls-9{fill:url(#linear-gradient-4);}.cls-10{fill:url(#linear-gradient-5);}.cls-11{fill:#d6d7d8;}.cls-12{fill:url(#linear-gradient-6);}.cls-13{fill:url(#linear-gradient-7);}.cls-14{fill:url(#linear-gradient-8);}</style>
    <linearGradient
       id="linear-gradient"
       x1="603.84998"
       y1="730.73999"
       x2="421.85001"
       y2="242.74001"
       gradientUnits="userSpaceOnUse">
      <stop
         offset="0.01"
         stop-color="#d7c41a"
         id="stop817" />
      <stop
         offset="0.5"
         stop-color="#0a7e3f"
         id="stop819" />
      <stop
         offset="1"
         stop-color="#478dcb"
         id="stop821" />
    </linearGradient>
    <linearGradient
       id="linear-gradient-2"
       x1="319.69"
       y1="530.90002"
       x2="485.69"
       y2="-123.1"
       xlink:href="#linear-gradient" />
    <linearGradient
       id="linear-gradient-3"
       x1="119.64"
       y1="570.77002"
       x2="109.64"
       y2="170.77"
       xlink:href="#linear-gradient" />
    <linearGradient
       id="linear-gradient-4"
       x1="606.91998"
       y1="313.62"
       x2="676.91998"
       y2="469.62"
       gradientUnits="userSpaceOnUse">
      <stop
         offset="0.01"
         stop-color="#d7c41a"
         id="stop826" />
      <stop
         offset="0.45"
         stop-color="#e2640f"
         id="stop828" />
      <stop
         offset="1"
         stop-color="#d3161a"
         id="stop830" />
    </linearGradient>
    <linearGradient
       id="linear-gradient-5"
       x1="533.71997"
       y1="417.10999"
       x2="662.40002"
       y2="417.10999"
       gradientUnits="userSpaceOnUse">
      <stop
         offset="0"
         stop-color="#d7c41a"
         id="stop833" />
      <stop
         offset="1"
         stop-color="#e2640f"
         id="stop835" />
    </linearGradient>
    <linearGradient
       id="linear-gradient-6"
       x1="348.04999"
       y1="737.09003"
       x2="190.05"
       y2="313.07999"
       xlink:href="#linear-gradient" />
    <linearGradient
       id="linear-gradient-7"
       x1="213.92"
       y1="646.45001"
       x2="245.92"
       y2="330.45001"
       gradientUnits="userSpaceOnUse">
      <stop
         offset="0"
         stop-color="#0a7e3f"
         id="stop839" />
      <stop
         offset="0.33"
         stop-color="#d7c41a"
         id="stop841" />
      <stop
         offset="1"
         stop-color="#e2640f"
         id="stop843" />
    </linearGradient>
    <linearGradient
       id="linear-gradient-8"
       x1="278.19"
       y1="297.14001"
       x2="384.19"
       y2="643.14001"
       xlink:href="#linear-gradient-4" />
  </defs>
  <title
     id="title849">mountains</title>
  <path
     style="opacity:1;fill:#4d4d4d;fill-opacity:1;fill-rule:nonzero;stroke:none;stroke-width:0.39898247;stroke-miterlimit:4;stroke-dasharray:none;stroke-dashoffset:0;stroke-opacity:1"
     d="M 483.5,0 C 355.26781,-5.5695507e-5 232.28766,50.939959 141.61381,141.61381 50.939959,232.28766 -5.5695507e-5,355.26781 0,483.5 -5.5695507e-5,611.73219 50.939959,734.71234 141.61381,825.38619 232.28766,916.06004 355.26781,967.00006 483.5,967 611.73219,967.00006 734.71234,916.06004 825.38619,825.38619 916.06004,734.71234 967.00006,611.73219 967,483.5 967.00006,355.26781 916.06004,232.28766 825.38619,141.61381 734.71234,50.939959 611.73219,-5.5695507e-5 483.5,0 Z m 29.66602,116.43359 c 0,0 1.28649,-1.2157 1.91318,-1.42324 0.6267,-0.20754 0.93193,-0.20346 1.57651,0 0.64459,0.20346 2.02984,1.42324 2.02984,1.42324 L 719.90625,496.46875 740.2168,356.90429 887.9961,636.02343 H 793.79688 568.01563 439.69727 412.23633 316.39649 305.02539 213.92579 77.816406 L 275.79688,302.51367 329.87305,434.69726 Z m 62.81055,257.04492 c -20.80477,0 -39.67525,3.74865 -56.60938,11.24805 -16.69221,7.25748 -29.99745,17.53838 -39.91601,30.84375 l 33.02148,25.40039 c 13.78921,-17.65986 33.6267,-26.48828 59.51172,-26.48828 15.48262,0 27.21598,3.14377 35.19922,9.43359 7.98321,6.28982 11.97461,15.36291 11.97461,27.2168 0,7.98322 -2.05541,16.0893 -6.16797,24.31445 -3.87066,7.98323 -11.49323,17.41652 -22.86328,28.30274 l -100.87891,95.79882 v 25.57032 H 676.49219 V 591.20117 H 556.74414 l 67.85547,-64.5918 c 16.45029,-15.48263 27.58075,-29.27139 33.38672,-41.36719 5.80599,-12.0958 8.70899,-25.03695 8.70899,-38.82617 0,-22.49819 -8.2255,-40.28028 -24.67579,-53.34375 C 625.56925,380.0088 603.555,373.47851 575.97657,373.47851 Z m -330.38672,3.62891 v 248.01172 h 47.17578 v -58.95508 l 40.27734,-41.36914 89.63086,100.32422 h 55.15625 L 364.61329,490.68554 471.29688,377.10742 H 418.31836 L 292.76563,507.37695 V 377.10742 Z"
     id="path842"
     inkscape:connector-curvature="0"
     sodipodi:nodetypes="sssssssssczzcccccccccccccccscccscscccccccccsssccccccccccccc" />
  <path
     style="opacity:1;fill:#666666;fill-opacity:1;fill-rule:nonzero;stroke:none;stroke-width:0.39898247;stroke-miterlimit:4;stroke-dasharray:none;stroke-dashoffset:0;stroke-opacity:1"
     d="m 405.11719,163.74414 -111.79883,181.59961 36.55469,89.35351 117.69922,-204.36914 z m 217.37891,71.61914 -25.22071,29.5 122.63086,231.60547 13.42774,-92.26758 z"
     id="path848"
     inkscape:connector-curvature="0" />
</svg>
