<?xml version="1.0" encoding="UTF-8" standalone="no"?>
<svg
   xmlns:dc="http://purl.org/dc/elements/1.1/"
   xmlns:cc="http://creativecommons.org/ns#"
   xmlns:rdf="http://www.w3.org/1999/02/22-rdf-syntax-ns#"
   xmlns:svg="http://www.w3.org/2000/svg"
   xmlns="http://www.w3.org/2000/svg"
   xmlns:xlink="http://www.w3.org/1999/xlink"
   xmlns:sodipodi="http://sodipodi.sourceforge.net/DTD/sodipodi-0.dtd"
   xmlns:inkscape="http://www.inkscape.org/namespaces/inkscape"
   viewBox="0 0 810.17967 519.58986"
   version="1.1"
   id="svg925"
   sodipodi:docname="logo.svg"
   width="810.17969"
   height="519.58984"
   inkscape:version="0.92.2 2405546, 2018-03-11">
  <metadata
     id="metadata929">
    <rdf:RDF>
      <cc:Work
         rdf:about="">
        <dc:format>image/svg+xml</dc:format>
        <dc:type
           rdf:resource="http://purl.org/dc/dcmitype/StillImage" />
        <dc:title>mountains</dc:title>
      </cc:Work>
    </rdf:RDF>
  </metadata>
  <sodipodi:namedview
     pagecolor="#ffffff"
     bordercolor="#666666"
     borderopacity="1"
     objecttolerance="10"
     gridtolerance="10"
     guidetolerance="10"
     inkscape:pageopacity="0"
     inkscape:pageshadow="2"
     inkscape:window-width="3840"
     inkscape:window-height="2075"
     id="namedview927"
     showgrid="false"
     inkscape:pagecheckerboard="true"
     fit-margin-top="0"
     fit-margin-left="0"
     fit-margin-right="0"
     fit-margin-bottom="0"
     inkscape:zoom="1.580902"
     inkscape:cx="277.53434"
     inkscape:cy="123.27562"
     inkscape:window-x="7680"
     inkscape:window-y="2196"
     inkscape:window-maximized="0"
     inkscape:current-layer="svg925" />
  <defs
     id="defs847">
    <style
       id="style815">.cls-1{fill:#ff3939;}.cls-2{fill:#051928;}.cls-3{fill:#f4aa4a;}.cls-4{opacity:0.3;}.cls-5{fill:#fff;}.cls-6{fill:url(#linear-gradient);}.cls-7{fill:url(#linear-gradient-2);}.cls-8{fill:url(#linear-gradient-3);}.cls-9{fill:url(#linear-gradient-4);}.cls-10{fill:url(#linear-gradient-5);}.cls-11{fill:#d6d7d8;}.cls-12{fill:url(#linear-gradient-6);}.cls-13{fill:url(#linear-gradient-7);}.cls-14{fill:url(#linear-gradient-8);}</style>
    <linearGradient
       id="linear-gradient"
       x1="603.84998"
       y1="730.73999"
       x2="421.85001"
       y2="242.74001"
       gradientUnits="userSpaceOnUse">
      <stop
         offset="0.01"
         stop-color="#d7c41a"
         id="stop817" />
      <stop
         offset="0.5"
         stop-color="#0a7e3f"
         id="stop819" />
      <stop
         offset="1"
         stop-color="#478dcb"
         id="stop821" />
    </linearGradient>
    <linearGradient
       id="linear-gradient-2"
       x1="319.69"
       y1="530.90002"
       x2="485.69"
       y2="-123.1"
       xlink:href="#linear-gradient" />
    <linearGradient
       id="linear-gradient-3"
       x1="119.64"
       y1="570.77002"
       x2="109.64"
       y2="170.77"
       xlink:href="#linear-gradient" />
    <linearGradient
       id="linear-gradient-4"
       x1="606.91998"
       y1="313.62"
       x2="676.91998"
       y2="469.62"
       gradientUnits="userSpaceOnUse">
      <stop
         offset="0.01"
         stop-color="#d7c41a"
         id="stop826" />
      <stop
         offset="0.45"
         stop-color="#e2640f"
         id="stop828" />
      <stop
         offset="1"
         stop-color="#d3161a"
         id="stop830" />
    </linearGradient>
    <linearGradient
       id="linear-gradient-5"
       x1="533.71997"
       y1="417.10999"
       x2="662.40002"
       y2="417.10999"
       gradientUnits="userSpaceOnUse">
      <stop
         offset="0"
         stop-color="#d7c41a"
         id="stop833" />
      <stop
         offset="1"
         stop-color="#e2640f"
         id="stop835" />
    </linearGradient>
    <linearGradient
       id="linear-gradient-6"
       x1="348.04999"
       y1="737.09003"
       x2="190.05"
       y2="313.07999"
       xlink:href="#linear-gradient" />
    <linearGradient
       id="linear-gradient-7"
       x1="213.92"
       y1="646.45001"
       x2="245.92"
       y2="330.45001"
       gradientUnits="userSpaceOnUse">
      <stop
         offset="0"
         stop-color="#0a7e3f"
         id="stop839" />
      <stop
         offset="0.33"
         stop-color="#d7c41a"
         id="stop841" />
      <stop
         offset="1"
         stop-color="#e2640f"
         id="stop843" />
    </linearGradient>
    <linearGradient
       id="linear-gradient-8"
       x1="278.19"
       y1="297.14001"
       x2="384.19"
       y2="643.14001"
       xlink:href="#linear-gradient-4" />
  </defs>
  <title
     id="title849">mountains</title>
  <path
     style="opacity:0.3;fill:#ffffff"
     d="M 327.30078,47.310547 195.94726,260.67383 h 19.00196 V 390.94336 L 340.50195,260.67383 h 52.97852 l -106.6836,113.57812 113.2168,140.4336 h -55.15625 l -89.63086,-106.32422 -40.27734,41.36914 v 64.95508 H 167.77343 V 306.43945 L 36.55078,519.58984 h 124.16992 41.41016 86.9082 138.87109 128.32032 l 12.43945,-4.90429 H 411.43164 v -31.57032 l 100.8789,-95.79882 c 11.37005,-10.88622 18.99263,-20.31951 22.86329,-28.30274 4.11256,-8.22515 6.16796,-16.33123 6.16796,-24.31445 0,-11.85389 -3.99139,-20.92698 -11.9746,-27.2168 -7.98324,-6.28982 -19.7166,-9.43359 -35.19922,-9.43359 -25.88502,0 -45.72251,8.82842 -59.51172,26.48828 l -33.02149,-25.40039 c 9.91856,-13.30537 23.22381,-23.58627 39.91602,-30.84375 16.93413,-7.4994 35.8046,-11.24805 56.60937,-11.24805 27.57843,0 49.59268,6.53029 66.04297,19.59375 16.45029,13.06347 24.67578,30.84556 24.67578,53.34375 0,13.78922 -2.90299,26.73037 -8.70898,38.82617 -5.80597,12.0958 -16.93643,25.88456 -33.38672,41.36719 l -67.85547,64.5918 h 119.74805 v 28.08789 L 756.00001,440.83008 544.67969,118.92969 446.32226,233.97266 Z"
     id="polygon877"
     inkscape:connector-curvature="0" />
  <path
     style="fill:#ffffff"
     d="M 435.34961,0 252.05664,318.26367 197.98047,186.08008 0,519.58984 h 136.10937 91.09961 11.3711 95.83984 27.46094 128.31836 225.78129 94.1992 L 662.40041,240.4707 642.08981,380.03516 440.86914,0 H 438.7207 437.5 Z m 62.81054,257.04492 c 27.57843,0 49.59268,6.53029 66.04297,19.59375 16.45029,13.06347 24.67578,30.84556 24.67578,53.34375 0,13.78922 -2.90299,26.73037 -8.70898,38.82617 -5.80597,12.0958 -16.93643,25.88456 -33.38672,41.36719 l -67.85547,64.5918 h 119.74805 v 39.91797 H 411.43164 v -31.57032 l 100.8789,-95.79882 c 11.37005,-10.88622 18.99263,-20.31951 22.86329,-28.30274 4.11256,-8.22515 6.16796,-16.33123 6.16796,-24.31445 0,-11.85389 -3.99139,-20.92698 -11.9746,-27.2168 -7.98324,-6.28982 -19.7166,-9.43359 -35.19922,-9.43359 -25.88502,0 -45.72251,8.82842 -59.51172,26.48828 l -33.02149,-25.40039 c 9.91856,-13.30537 23.22381,-23.58627 39.91602,-30.84375 16.93413,-7.4994 35.8046,-11.24805 56.60937,-11.24805 z m -330.38672,3.62891 h 47.17579 V 390.94336 L 340.50195,260.67383 h 52.97852 l -106.6836,113.57812 113.2168,140.4336 h -55.15625 l -89.63086,-106.32422 -40.27734,41.36914 v 64.95508 h -47.17579 z"
     id="polygon889"
     inkscape:connector-curvature="0" />
</svg>
